<svg width="10" height="7" viewBox="0 0 10 7" fill="none" xmlns="http://www.w3.org/2000/svg">
<path d="M8.13954 1.46512H3.90698V3.91957H3.45617V3.08527C3.45565 2.61257 3.26764 2.15938 2.93339 1.82513C2.59915 1.49088 2.14596 1.30286 1.67326 1.30233H0.651163V0H0V7H0.651163V6.02849L9.11628 6.09621V7H9.76744V3.09302C9.76695 2.66143 9.59528 2.24765 9.2901 1.94246C8.98491 1.63727 8.57113 1.46561 8.13954 1.46512ZM0.651163 1.95349H1.67326C1.97332 1.95383 2.26098 2.07317 2.47315 2.28534C2.68532 2.49751 2.80467 2.78518 2.80501 3.08523V3.91953H0.651163V1.95349ZM9.11628 5.44502L0.651163 5.3773V4.57074H9.11628V5.44502ZM9.11628 3.91957H4.55814V2.11628H8.13954C8.39849 2.11658 8.64676 2.21958 8.82987 2.40269C9.01298 2.5858 9.11598 2.83407 9.11628 3.09302V3.91957Z" fill="white"/>
</svg>
