<svg width="12" height="12" viewBox="0 0 12 12" fill="none" xmlns="http://www.w3.org/2000/svg">
<path fill-rule="evenodd" clip-rule="evenodd" d="M5.74562 11.0063H6.2544C7.40307 11.0063 8.192 11.0052 8.79867 10.946C9.3896 10.8883 9.69987 10.7831 9.9226 10.6418C10.2083 10.4605 10.4507 10.2196 10.6331 9.93573C10.7754 9.7144 10.8812 9.40607 10.9393 8.81887C10.9989 8.21607 11 7.43213 11 6.29073C11 4.91314 10.9842 4.48609 10.8443 4.12491C10.7659 3.92226 10.6591 3.73156 10.5273 3.55841C10.2923 3.24982 9.93547 3.01123 8.75767 2.28455L8.63753 2.21039C7.9414 1.78091 7.47033 1.49121 7.0812 1.29351C6.7072 1.1035 6.46993 1.03139 6.2588 1.00798C6.0868 0.988908 5.91321 0.988908 5.74123 1.00798C5.53006 1.03139 5.2928 1.1035 4.91879 1.29351C4.52964 1.49121 4.05858 1.78091 3.36249 2.21039L3.2423 2.28455C2.06453 3.01123 1.70775 3.24982 1.47273 3.55841C1.34086 3.73156 1.23413 3.92226 1.15565 4.12491C1.01579 4.48609 1 4.91314 1 6.29073C1 7.43213 1.00113 8.21607 1.06072 8.81887C1.11877 9.40607 1.22459 9.7144 1.36686 9.93573C1.54929 10.2196 1.79175 10.4605 2.07737 10.6418C2.30014 10.7831 2.61042 10.8883 3.20135 10.946C3.80801 11.0052 4.59693 11.0063 5.74562 11.0063ZM0.22236 3.76807C-1.98682e-08 4.34229 0 4.99177 0 6.29073C0 8.53373 -3.97364e-08 9.65527 0.524087 10.4706C0.7847 10.8761 1.13107 11.2203 1.53911 11.4792C2.35967 12 3.48833 12 5.74562 12H6.2544C8.51167 12 9.64033 12 10.4609 11.4792C10.8689 11.2203 11.2153 10.8761 11.4759 10.4706C12 9.65527 12 8.53373 12 6.29073C12 4.99177 12 4.34229 11.7777 3.76807C11.6655 3.47856 11.5131 3.20613 11.3247 2.95878C10.951 2.46817 10.3957 2.12557 9.2852 1.44037L9.165 1.36621C7.8006 0.524368 7.11833 0.103448 6.36967 0.0204325C6.124 -0.00681083 5.87601 -0.00681083 5.63033 0.0204325C4.88165 0.103448 4.19943 0.524368 2.83499 1.36621L2.7148 1.44037C1.60425 2.12557 1.04897 2.46817 0.675327 2.95878C0.486947 3.20613 0.334467 3.47856 0.22236 3.76807ZM3.5 8.74307C3.5 8.46687 3.72386 8.24307 4 8.24307H8C8.27613 8.24307 8.5 8.46687 8.5 8.74307C8.5 9.0192 8.27613 9.24307 8 9.24307H4C3.72386 9.24307 3.5 9.0192 3.5 8.74307Z" fill="#4EEF53"/>
</svg>
