<svg width="12" height="12" viewBox="0 0 12 12" fill="none" xmlns="http://www.w3.org/2000/svg">
<path fill-rule="evenodd" clip-rule="evenodd" d="M6.54439 1.05003C6.18486 0.979694 5.8151 0.979694 5.45557 1.05003C4.96848 1.14533 4.50426 1.42397 3.362 2.13195C2.33352 2.76941 1.92268 3.03159 1.63646 3.38177C1.42501 3.64047 1.26116 3.93455 1.15252 4.25034C1.00548 4.67778 0.99907 5.16449 0.99907 6.37293V9.40967C0.99907 10.2895 1.71357 11.0027 2.59496 11.0027C3.18702 11.0027 3.66698 10.5236 3.66698 9.9326V8.451C3.66698 7.1648 4.71151 6.12213 5.99999 6.12213C7.28846 6.12213 8.33299 7.1648 8.33299 8.451V9.9326C8.33299 10.5236 8.81299 11.0027 9.40506 11.0027C10.2864 11.0027 11.0009 10.2895 11.0009 9.40967V6.37293C11.0009 5.16449 10.9945 4.67778 10.8475 4.25034C10.7389 3.93455 10.575 3.64047 10.3635 3.38177C10.0773 3.03159 9.66646 2.76941 8.63799 2.13195C7.49573 1.42397 7.03153 1.14533 6.54439 1.05003ZM5.26342 0.0713735C5.74984 -0.0237912 6.25013 -0.0237912 6.73659 0.0713735C7.42553 0.206167 8.05306 0.595274 9.07319 1.22778C9.10339 1.24654 9.13406 1.26552 9.16499 1.28471C9.19266 1.30186 9.22006 1.31881 9.24706 1.33558C10.1669 1.90546 10.7329 2.25619 11.1376 2.75131C11.4237 3.10133 11.6454 3.49919 11.7923 3.92645C12.0003 4.53081 12.0001 5.19587 12 6.27653C12 6.30827 12 6.34047 12 6.37293V9.40967C12 10.8403 10.8382 12 9.40506 12C8.26119 12 7.33393 11.0744 7.33393 9.9326V8.451C7.33393 7.7156 6.73673 7.1194 5.99999 7.1194C5.26327 7.1194 4.66604 7.7156 4.66604 8.451V9.9326C4.66604 11.0744 3.73878 12 2.59496 12C1.16181 12 1.70263e-05 10.8403 1.70263e-05 9.40967V6.37293C1.70263e-05 6.34047 1.03505e-05 6.30827 1.03505e-05 6.27647C-0.000168983 5.19587 -0.000277003 4.53081 0.20763 3.92645C0.35461 3.49919 0.576283 3.10133 0.86237 2.75131C1.26706 2.25619 1.83313 1.90546 2.75291 1.33558C2.77996 1.31881 2.80733 1.30186 2.835 1.28471C2.86596 1.26552 2.89657 1.24654 2.92682 1.22778C3.9469 0.595274 4.57444 0.206167 5.26342 0.0713735Z" fill="#4EEF53"/>
</svg>
