<svg width="16" height="16" viewBox="0 0 16 16" fill="none" xmlns="http://www.w3.org/2000/svg">
<path d="M7.936 0C5.78004 0 5.51091 0.00992 4.66438 0.047616C3.8192 0.087296 3.24384 0.220224 2.73792 0.41664C2.21613 0.619008 1.77304 0.890816 1.33192 1.33192C0.890816 1.77304 0.618348 2.21547 0.41664 2.73792C0.220224 3.24384 0.0866348 3.8192 0.047616 4.66438C0.007936 5.51091 0 5.78004 0 7.936C0 10.092 0.00992 10.3611 0.047616 11.2076C0.087296 12.0522 0.220224 12.6282 0.41664 13.1341C0.619008 13.6552 0.890816 14.0989 1.33192 14.5401C1.77304 14.9805 2.21547 15.2536 2.73792 15.4554C3.2445 15.6511 3.81986 15.7853 4.66438 15.8244C5.51091 15.8641 5.78004 15.872 7.936 15.872C10.092 15.872 10.3611 15.8621 11.2076 15.8244C12.0522 15.7847 12.6282 15.6511 13.1341 15.4554C13.6552 15.253 14.0989 14.9805 14.5401 14.5401C14.9805 14.0989 15.2536 13.6572 15.4554 13.1341C15.6511 12.6282 15.7853 12.0522 15.8244 11.2076C15.8641 10.3611 15.872 10.092 15.872 7.936C15.872 5.78004 15.8621 5.51091 15.8244 4.66438C15.7847 3.81986 15.6511 3.24318 15.4554 2.73792C15.253 2.21613 14.9805 1.77304 14.5401 1.33192C14.0989 0.890816 13.6572 0.618348 13.1341 0.41664C12.6282 0.220224 12.0522 0.0866348 11.2076 0.047616C10.3611 0.007936 10.092 0 7.936 0ZM7.936 1.42848C10.0543 1.42848 10.3069 1.43906 11.1435 1.47544C11.9172 1.51181 12.3372 1.64011 12.6163 1.74989C12.9879 1.8934 13.2511 2.06534 13.5302 2.34244C13.8073 2.6202 13.9793 2.88408 14.1228 3.25574C14.2312 3.53483 14.3608 3.95477 14.3959 4.72853C14.4336 5.56576 14.4422 5.81709 14.4422 7.936C14.4422 10.0549 14.4323 10.3069 14.3933 11.1435C14.3529 11.9172 14.2239 12.3372 14.1148 12.6163C13.9667 12.9879 13.7981 13.2511 13.5203 13.5302C13.2432 13.8073 12.9754 13.9793 12.6077 14.1228C12.3299 14.2312 11.9034 14.3608 11.1296 14.3959C10.287 14.4336 10.039 14.4422 7.91616 14.4422C5.79263 14.4422 5.54464 14.4323 4.70274 14.3933C3.92832 14.3529 3.50176 14.2239 3.224 14.1148C2.8477 13.9667 2.58912 13.7981 2.31202 13.5203C2.0336 13.2432 1.8557 12.9754 1.71682 12.6077C1.6077 12.3299 1.4794 11.9034 1.43906 11.1296C1.4093 10.2963 1.39872 10.039 1.39872 7.92608C1.39872 5.81247 1.4093 5.55455 1.43906 4.71134C1.4794 3.93758 1.6077 3.51168 1.71682 3.23392C1.8557 2.85696 2.0336 2.59904 2.31202 2.32062C2.58912 2.04352 2.8477 1.86496 3.224 1.72674C3.50176 1.61696 3.91906 1.488 4.69282 1.44832C5.53601 1.41856 5.784 1.40864 7.90624 1.40864L7.936 1.42848ZM7.936 3.86086C5.68416 3.86086 3.86086 5.68614 3.86086 7.936C3.86086 10.1878 5.68614 12.0111 7.936 12.0111C10.1878 12.0111 12.0111 10.1859 12.0111 7.936C12.0111 5.68416 10.1859 3.86086 7.936 3.86086ZM7.936 10.5813C6.47444 10.5813 5.29068 9.39756 5.29068 7.936C5.29068 6.47444 6.47444 5.29068 7.936 5.29068C9.39756 5.29068 10.5813 6.47444 10.5813 7.936C10.5813 9.39756 9.39756 10.5813 7.936 10.5813ZM13.1248 3.70016C13.1248 4.22592 12.6976 4.65248 12.1725 4.65248C11.6467 4.65248 11.2202 4.22526 11.2202 3.70016C11.2202 3.17506 11.6474 2.7485 12.1725 2.7485C12.697 2.74784 13.1248 3.17506 13.1248 3.70016Z" fill="white"/>
</svg>
