<svg width="24" height="24" viewBox="0 0 24 24" fill="none" xmlns="http://www.w3.org/2000/svg">
<path d="M12 2.00037C7.79997 2.00037 3.99957 5.21997 3.99957 10.2C3.99957 13.38 6.44997 17.1204 11.34 21.4296C11.5248 21.589 11.7607 21.6767 12.0048 21.6767C12.2488 21.6767 12.4848 21.589 12.6696 21.4296C17.55 17.1204 20.0004 13.38 20.0004 10.2C20.0004 5.21997 16.2 2.00037 12 2.00037ZM12 12C10.8996 12 9.99957 11.1 9.99957 9.99957C9.99957 8.89917 10.8996 7.99917 12 7.99917C13.1004 7.99917 14.0004 8.89917 14.0004 9.99957C14.0004 11.1 13.1004 12 12 12Z" fill="url(#paint0_linear_210_331)"/>
<defs>
<linearGradient id="paint0_linear_210_331" x1="3.99957" y1="11.8386" x2="20.0004" y2="11.8386" gradientUnits="userSpaceOnUse">
<stop stop-color="#4EEF53"/>
<stop offset="1" stop-color="#2E9638"/>
</linearGradient>
</defs>
</svg>
