<svg width="211" height="57" viewBox="0 0 211 57" fill="none" xmlns="http://www.w3.org/2000/svg">
<path d="M93.3359 18.5625H98.3555L104.156 38.0156L109.938 18.5625H114.371L106.285 47H102.008L93.3359 18.5625ZM91.3047 18.5625H96.0898L96.832 37.3125V47H91.3047V18.5625ZM112.184 18.5625H116.988V47H111.48V37.3125L112.184 18.5625ZM130.299 42.1367V32.3711C130.299 31.7331 130.221 31.2253 130.065 30.8477C129.922 30.4701 129.7 30.1966 129.401 30.0273C129.114 29.8451 128.763 29.7539 128.346 29.7539C127.877 29.7539 127.487 29.8516 127.174 30.0469C126.862 30.2422 126.627 30.5221 126.471 30.8867C126.328 31.2513 126.256 31.6875 126.256 32.1953H120.768C120.768 31.2839 120.944 30.4245 121.295 29.6172C121.647 28.7969 122.161 28.0807 122.838 27.4688C123.528 26.8438 124.349 26.3555 125.299 26.0039C126.25 25.6523 127.317 25.4766 128.502 25.4766C129.909 25.4766 131.159 25.7174 132.252 26.1992C133.346 26.668 134.212 27.4167 134.85 28.4453C135.488 29.474 135.807 30.8086 135.807 32.4492V41.8633C135.807 43.0482 135.866 44.0117 135.983 44.7539C136.113 45.4961 136.302 46.1341 136.549 46.668V47H131.041C130.794 46.4141 130.605 45.6849 130.475 44.8125C130.358 43.9271 130.299 43.0352 130.299 42.1367ZM130.963 34.0898L130.983 37.3711H128.971C128.45 37.3711 127.995 37.4557 127.604 37.625C127.226 37.7943 126.907 38.0352 126.647 38.3477C126.386 38.6471 126.191 38.9987 126.061 39.4023C125.944 39.806 125.885 40.2357 125.885 40.6914C125.885 41.1992 125.957 41.6289 126.1 41.9805C126.243 42.332 126.458 42.599 126.745 42.7812C127.031 42.9635 127.37 43.0547 127.76 43.0547C128.359 43.0547 128.88 42.931 129.323 42.6836C129.765 42.4362 130.091 42.1367 130.299 41.7852C130.521 41.4336 130.592 41.1081 130.514 40.8086L131.764 42.9375C131.608 43.4193 131.393 43.9206 131.12 44.4414C130.859 44.9622 130.527 45.444 130.123 45.8867C129.72 46.3294 129.218 46.694 128.62 46.9805C128.034 47.2539 127.337 47.3906 126.53 47.3906C125.397 47.3906 124.362 47.1302 123.424 46.6094C122.487 46.0885 121.745 45.3594 121.198 44.4219C120.664 43.4844 120.397 42.3711 120.397 41.082C120.397 40.0143 120.566 39.0508 120.905 38.1914C121.256 37.319 121.777 36.5833 122.467 35.9844C123.157 35.3724 124.03 34.9036 125.084 34.5781C126.139 34.2526 127.376 34.0898 128.795 34.0898H130.963ZM144.919 30.5742V47H139.45V25.8672H144.606L144.919 30.5742ZM149.899 25.7109L149.821 31.1602C149.574 31.1081 149.274 31.069 148.923 31.043C148.584 31.0169 148.285 31.0039 148.024 31.0039C147.412 31.0039 146.891 31.1016 146.462 31.2969C146.032 31.4792 145.674 31.7591 145.388 32.1367C145.114 32.5013 144.906 32.957 144.763 33.5039C144.619 34.0508 144.535 34.6693 144.509 35.3594L143.473 34.9688C143.473 33.5885 143.578 32.3255 143.786 31.1797C144.007 30.0208 144.333 29.0182 144.763 28.1719C145.192 27.3125 145.707 26.6484 146.305 26.1797C146.917 25.7109 147.608 25.4766 148.376 25.4766C148.636 25.4766 148.91 25.5026 149.196 25.5547C149.496 25.5938 149.73 25.6458 149.899 25.7109ZM162.487 25.8672V29.9883H151.706V25.8672H162.487ZM154.187 20.6523H159.636V40.5547C159.636 41.1406 159.695 41.5898 159.812 41.9023C159.929 42.2148 160.105 42.4362 160.339 42.5664C160.586 42.6836 160.912 42.7422 161.316 42.7422C161.589 42.7422 161.843 42.7292 162.077 42.7031C162.312 42.6641 162.487 42.625 162.605 42.5859V46.8633C162.175 47.0326 161.719 47.1628 161.237 47.2539C160.769 47.3451 160.209 47.3906 159.558 47.3906C158.464 47.3906 157.514 47.1823 156.706 46.7656C155.912 46.349 155.293 45.6849 154.851 44.7734C154.408 43.849 154.187 42.638 154.187 41.1406V20.6523ZM170.877 25.8672V47H165.388V25.8672H170.877ZM165.134 20.3984C165.134 19.5521 165.401 18.8555 165.935 18.3086C166.482 17.7487 167.211 17.4688 168.123 17.4688C169.047 17.4688 169.776 17.7487 170.31 18.3086C170.844 18.8555 171.111 19.5521 171.111 20.3984C171.111 21.2318 170.838 21.9284 170.291 22.4883C169.757 23.0352 169.041 23.3086 168.142 23.3086C167.218 23.3086 166.482 23.0352 165.935 22.4883C165.401 21.9284 165.134 21.2318 165.134 20.3984ZM180.184 30.3789V47H174.695V25.8672H179.832L180.184 30.3789ZM179.363 35.7109L177.898 35.75C177.872 34.1615 178.022 32.7357 178.348 31.4727C178.686 30.2096 179.161 29.1354 179.773 28.25C180.398 27.3516 181.141 26.668 182 26.1992C182.872 25.7174 183.842 25.4766 184.91 25.4766C185.73 25.4766 186.479 25.6198 187.156 25.9062C187.846 26.1927 188.439 26.6484 188.934 27.2734C189.428 27.8984 189.812 28.7318 190.086 29.7734C190.359 30.8021 190.496 32.0651 190.496 33.5625V47H185.008V33.5234C185.008 32.612 184.917 31.9089 184.734 31.4141C184.552 30.9062 184.279 30.5547 183.914 30.3594C183.549 30.151 183.094 30.0469 182.547 30.0469C182.026 30.0469 181.564 30.1966 181.16 30.4961C180.757 30.7826 180.418 31.1797 180.145 31.6875C179.884 32.1953 179.682 32.7943 179.539 33.4844C179.409 34.1745 179.35 34.9167 179.363 35.7109ZM203.475 41.2969C203.475 40.9323 203.351 40.6068 203.104 40.3203C202.857 40.0339 202.466 39.7409 201.932 39.4414C201.398 39.1289 200.689 38.7839 199.803 38.4062C198.84 38.0156 197.987 37.612 197.245 37.1953C196.502 36.7786 195.871 36.3164 195.35 35.8086C194.842 35.3008 194.458 34.7214 194.198 34.0703C193.937 33.4193 193.807 32.6771 193.807 31.8438C193.807 30.9453 193.97 30.1185 194.295 29.3633C194.634 28.5951 195.116 27.9245 195.741 27.3516C196.366 26.7656 197.127 26.3099 198.026 25.9844C198.937 25.6458 199.959 25.4766 201.092 25.4766C202.681 25.4766 204.041 25.7565 205.174 26.3164C206.32 26.8633 207.199 27.6315 207.811 28.6211C208.423 29.6107 208.729 30.763 208.729 32.0781H203.26C203.26 31.6094 203.189 31.1927 203.045 30.8281C202.902 30.4505 202.668 30.1576 202.342 29.9492C202.03 29.7409 201.607 29.6367 201.073 29.6367C200.682 29.6367 200.33 29.7214 200.018 29.8906C199.718 30.0599 199.478 30.2878 199.295 30.5742C199.126 30.8477 199.041 31.1732 199.041 31.5508C199.041 31.8372 199.1 32.0911 199.217 32.3125C199.347 32.5339 199.549 32.7487 199.823 32.957C200.096 33.1654 200.461 33.3867 200.916 33.6211C201.385 33.8424 201.958 34.0898 202.635 34.3633C204.041 34.8841 205.194 35.444 206.092 36.043C207.004 36.6419 207.681 37.3451 208.123 38.1523C208.566 38.9466 208.787 39.9297 208.787 41.1016C208.787 42.0391 208.605 42.8919 208.241 43.6602C207.889 44.4284 207.375 45.0924 206.698 45.6523C206.021 46.2122 205.207 46.6419 204.256 46.9414C203.319 47.2409 202.271 47.3906 201.112 47.3906C199.406 47.3906 197.967 47.0521 196.795 46.375C195.623 45.6979 194.738 44.832 194.139 43.7773C193.54 42.7096 193.241 41.6029 193.241 40.457H198.436C198.462 41.1602 198.592 41.7135 198.827 42.1172C199.074 42.5078 199.406 42.7812 199.823 42.9375C200.239 43.0938 200.702 43.1719 201.209 43.1719C201.717 43.1719 202.134 43.1068 202.459 42.9766C202.798 42.8333 203.052 42.6185 203.221 42.332C203.39 42.0326 203.475 41.6875 203.475 41.2969Z" fill="black"/>
<path d="M34.8594 37.5273H40.543C40.4648 39.6628 40.0352 41.4661 39.2539 42.9375C38.4727 44.3958 37.3594 45.5026 35.9141 46.2578C34.4818 47.013 32.75 47.3906 30.7188 47.3906C29.1432 47.3906 27.7435 47.1302 26.5195 46.6094C25.2956 46.0755 24.2539 45.2943 23.3945 44.2656C22.5352 43.237 21.8841 41.9674 21.4414 40.457C21.0117 38.9336 20.7969 37.1823 20.7969 35.2031V30.3789C20.7969 28.3997 21.0247 26.6484 21.4805 25.125C21.9492 23.6016 22.6133 22.3255 23.4727 21.2969C24.3451 20.2552 25.3932 19.474 26.6172 18.9531C27.8542 18.4193 29.2474 18.1523 30.7969 18.1523C32.8672 18.1523 34.599 18.543 35.9922 19.3242C37.3854 20.1055 38.4596 21.2448 39.2148 22.7422C39.9831 24.2266 40.4453 26.043 40.6016 28.1914H34.8984C34.8594 26.8372 34.7031 25.776 34.4297 25.0078C34.1693 24.2266 33.7526 23.6797 33.1797 23.3672C32.6068 23.0417 31.8125 22.8789 30.7969 22.8789C30.0417 22.8789 29.3906 23.0156 28.8438 23.2891C28.2969 23.5495 27.8477 23.9727 27.4961 24.5586C27.1445 25.1445 26.8841 25.9128 26.7148 26.8633C26.5586 27.8138 26.4805 28.9727 26.4805 30.3398V35.2031C26.4805 36.5443 26.5521 37.6901 26.6953 38.6406C26.8385 39.5781 27.0664 40.3464 27.3789 40.9453C27.6914 41.5443 28.1146 41.9805 28.6484 42.2539C29.1953 42.5273 29.8854 42.6641 30.7188 42.6641C31.6823 42.6641 32.457 42.5208 33.043 42.2344C33.6419 41.9479 34.0846 41.4336 34.3711 40.6914C34.6576 39.9492 34.8203 38.8945 34.8594 37.5273ZM44.1367 18.5625H53.2578C55.1589 18.5625 56.7799 18.888 58.1211 19.5391C59.4622 20.1901 60.4909 21.1536 61.207 22.4297C61.9232 23.7057 62.2812 25.2812 62.2812 27.1562C62.2812 28.6927 62.0729 30.0078 61.6562 31.1016C61.2396 32.1823 60.6471 33.0872 59.8789 33.8164C59.1107 34.5326 58.1927 35.1055 57.125 35.5352L55.3867 36.5703H47.9844L47.9648 31.8242H53.1016C53.8828 31.8242 54.5273 31.6549 55.0352 31.3164C55.556 30.9648 55.9401 30.4766 56.1875 29.8516C56.4479 29.2135 56.5781 28.4714 56.5781 27.625C56.5781 26.7266 56.4609 25.9583 56.2266 25.3203C56.0052 24.6693 55.6471 24.1745 55.1523 23.8359C54.6706 23.4844 54.0391 23.3086 53.2578 23.3086H49.8594V47H44.1367V18.5625ZM57.0469 47L51.832 34.3242L57.8281 34.3047L63.1602 46.7266V47H57.0469Z" fill="black"/>
<g filter="url(#filter0_d_208_148)">
<rect x="67" y="20" width="7" height="27" fill="#4EEF53"/>
</g>
<g filter="url(#filter1_d_208_148)">
<path d="M4 24L41.5 4L79 24" stroke="#4EEF53" stroke-width="7"/>
</g>
<g filter="url(#filter2_d_208_148)">
<rect x="9" y="20" width="7" height="27" fill="#4EEF53"/>
</g>
<defs>
<filter id="filter0_d_208_148" x="63" y="18" width="15" height="35" filterUnits="userSpaceOnUse" color-interpolation-filters="sRGB">
<feFlood flood-opacity="0" result="BackgroundImageFix"/>
<feColorMatrix in="SourceAlpha" type="matrix" values="0 0 0 0 0 0 0 0 0 0 0 0 0 0 0 0 0 0 127 0" result="hardAlpha"/>
<feOffset dy="2"/>
<feGaussianBlur stdDeviation="2"/>
<feComposite in2="hardAlpha" operator="out"/>
<feColorMatrix type="matrix" values="0 0 0 0 0 0 0 0 0 0 0 0 0 0 0 0 0 0 0.25 0"/>
<feBlend mode="normal" in2="BackgroundImageFix" result="effect1_dropShadow_208_148"/>
<feBlend mode="normal" in="SourceGraphic" in2="effect1_dropShadow_208_148" result="shape"/>
</filter>
<filter id="filter1_d_208_148" x="0.353027" y="0.0333252" width="82.2939" height="31.0549" filterUnits="userSpaceOnUse" color-interpolation-filters="sRGB">
<feFlood flood-opacity="0" result="BackgroundImageFix"/>
<feColorMatrix in="SourceAlpha" type="matrix" values="0 0 0 0 0 0 0 0 0 0 0 0 0 0 0 0 0 0 127 0" result="hardAlpha"/>
<feOffset dy="2"/>
<feGaussianBlur stdDeviation="1"/>
<feComposite in2="hardAlpha" operator="out"/>
<feColorMatrix type="matrix" values="0 0 0 0 0 0 0 0 0 0 0 0 0 0 0 0 0 0 0.25 0"/>
<feBlend mode="normal" in2="BackgroundImageFix" result="effect1_dropShadow_208_148"/>
<feBlend mode="normal" in="SourceGraphic" in2="effect1_dropShadow_208_148" result="shape"/>
</filter>
<filter id="filter2_d_208_148" x="5" y="18" width="15" height="35" filterUnits="userSpaceOnUse" color-interpolation-filters="sRGB">
<feFlood flood-opacity="0" result="BackgroundImageFix"/>
<feColorMatrix in="SourceAlpha" type="matrix" values="0 0 0 0 0 0 0 0 0 0 0 0 0 0 0 0 0 0 127 0" result="hardAlpha"/>
<feOffset dy="2"/>
<feGaussianBlur stdDeviation="2"/>
<feComposite in2="hardAlpha" operator="out"/>
<feColorMatrix type="matrix" values="0 0 0 0 0 0 0 0 0 0 0 0 0 0 0 0 0 0 0.25 0"/>
<feBlend mode="normal" in2="BackgroundImageFix" result="effect1_dropShadow_208_148"/>
<feBlend mode="normal" in="SourceGraphic" in2="effect1_dropShadow_208_148" result="shape"/>
</filter>
</defs>
</svg>
