<svg width="24" height="24" viewBox="0 0 24 24" fill="none" xmlns="http://www.w3.org/2000/svg">
<g clip-path="url(#clip0_210_334)">
<path d="M20.0004 3.99963H3.99963C2.90043 3.99963 2.01003 4.89963 2.01003 6.00003L2.00043 18C2.00043 19.1004 2.90043 20.0004 3.99963 20.0004H20.0004C21.0996 20.0004 21.9996 19.1004 21.9996 18V6.00003C21.9996 4.89963 21.0996 3.99963 20.0004 3.99963ZM19.5996 8.25003L12.5304 12.6708C12.3709 12.769 12.1873 12.821 12 12.821C11.8127 12.821 11.6291 12.769 11.4696 12.6708L4.40043 8.25003C4.30155 8.19304 4.21517 8.11671 4.14644 8.0256C4.07772 7.9345 4.02805 7.83047 4.0004 7.71975C3.97276 7.60902 3.96771 7.49386 3.98555 7.38114C4.00339 7.26842 4.04376 7.16045 4.10424 7.06367C4.16473 6.96689 4.24409 6.88329 4.3376 6.81786C4.4311 6.75243 4.53683 6.70651 4.64847 6.68283C4.76012 6.65916 4.87538 6.65823 4.9874 6.68008C5.09941 6.70193 5.20587 6.74613 5.30043 6.81003L12 11.0004L18.6996 6.81003C18.7942 6.74613 18.9006 6.70193 19.0127 6.68008C19.1247 6.65823 19.2399 6.65916 19.3516 6.68283C19.4632 6.70651 19.569 6.75243 19.6625 6.81786C19.756 6.88329 19.8353 6.96689 19.8958 7.06367C19.9563 7.16045 19.9967 7.26842 20.0145 7.38114C20.0323 7.49386 20.0273 7.60902 19.9997 7.71975C19.972 7.83047 19.9223 7.9345 19.8536 8.0256C19.7849 8.11671 19.6985 8.19304 19.5996 8.25003Z" fill="url(#paint0_linear_210_334)"/>
</g>
<defs>
<linearGradient id="paint0_linear_210_334" x1="2.00043" y1="12" x2="21.9996" y2="12" gradientUnits="userSpaceOnUse">
<stop stop-color="#4EEF53"/>
<stop offset="1" stop-color="#2E9638"/>
</linearGradient>
<clipPath id="clip0_210_334">
<rect width="24" height="24" fill="white"/>
</clipPath>
</defs>
</svg>
