<svg width="38" height="38" viewBox="0 0 38 38" fill="none" xmlns="http://www.w3.org/2000/svg">
<path d="M3.99525 5.82667C3.99525 4.95322 4.33766 4.11555 4.94716 3.49793C5.55666 2.88031 6.38332 2.53333 7.24528 2.53333C8.10724 2.53333 8.9339 2.88031 9.5434 3.49793C10.1529 4.11555 10.4953 4.95322 10.4953 5.82667V19.4074C11.2953 19.4834 12.1293 19.6141 12.9953 19.8097V16.2133H28.4955V24.3788C29.3342 24.3522 30.1698 24.2628 30.9955 24.1113V5.82667C30.9955 4.28134 30.3897 2.7993 29.3114 1.70659C28.233 0.613879 26.7705 0 25.2455 0C23.7205 0 22.2579 0.613879 21.1796 1.70659C20.1012 2.7993 19.4954 4.28134 19.4954 5.82667V6.84C19.4954 7.17594 19.6271 7.49812 19.8615 7.73567C20.096 7.97321 20.4139 8.10667 20.7454 8.10667C21.0769 8.10667 21.3949 7.97321 21.6293 7.73567C21.8637 7.49812 21.9954 7.17594 21.9954 6.84V5.82667C21.9954 4.95322 22.3378 4.11555 22.9473 3.49793C23.5568 2.88031 24.3835 2.53333 25.2455 2.53333C26.1074 2.53333 26.9341 2.88031 27.5436 3.49793C28.1531 4.11555 28.4955 4.95322 28.4955 5.82667V13.68H12.9953V5.82667C12.9953 4.28134 12.3895 2.7993 11.3112 1.70659C10.2328 0.613879 8.77029 0 7.24528 0C5.72027 0 4.25772 0.613879 3.17938 1.70659C2.10103 2.7993 1.49522 4.28134 1.49522 5.82667V6.84C1.49522 7.17594 1.62692 7.49812 1.86134 7.73567C2.09577 7.97321 2.41371 8.10667 2.74524 8.10667C3.07676 8.10667 3.3947 7.97321 3.62913 7.73567C3.86355 7.49812 3.99525 7.17594 3.99525 6.84V5.82667ZM17.0494 26.0964C7.56929 21.1655 2.32323 25.7366 2.08523 25.9444L2.08323 25.9454C1.57322 26.4095 0.783215 26.369 0.32321 25.8542C0.10207 25.6081 -0.0137034 25.2832 0.00129496 24.9508C0.0162933 24.6183 0.160838 24.3054 0.403211 24.0809C0.673214 23.8275 7.09228 18.0606 18.2094 23.8478C28.1375 29.0209 35.7956 24.6149 36.1156 24.4234C36.7056 24.0697 37.4756 24.2714 37.8256 24.8672C38.1746 25.462 37.9856 26.2382 37.3856 26.5909C37.1556 26.7327 33.4856 28.88 27.9475 28.88C24.1105 28.7756 20.4754 27.8839 17.0494 26.0964ZM2.08523 35.0644C2.32323 34.8566 7.57029 30.2855 17.0494 35.2164C20.4754 37.0039 24.1095 37.8956 27.9475 38C33.4856 38 37.1546 35.8517 37.3846 35.7109C37.9846 35.3582 38.1746 34.582 37.8246 33.9862C37.6543 33.6993 37.3794 33.492 37.0593 33.4091C36.7392 33.3262 36.3998 33.3745 36.1146 33.5434C35.7946 33.7349 28.1375 38.1409 18.2094 32.9688C7.09228 27.1806 0.674214 32.9485 0.404211 33.1998C0.283902 33.3111 0.186398 33.4452 0.117265 33.5947C0.0481322 33.7441 0.00872587 33.9059 0.00129687 34.0707C-0.00613213 34.2356 0.0185616 34.4003 0.0739676 34.5555C0.129374 34.7107 0.214407 34.8533 0.32421 34.9752C0.784215 35.489 1.57422 35.5295 2.08423 35.0664L2.08523 35.0644Z" fill="#4EEF53"/>
</svg>
