<svg width="4" height="7" viewBox="0 0 4 7" fill="none" xmlns="http://www.w3.org/2000/svg">
<path d="M2.85966 3.19102L1.3831 2.75898C1.2122 2.70977 1.09325 2.5498 1.09325 2.37207C1.09325 2.14922 1.27372 1.96875 1.49657 1.96875H2.40302C2.56981 1.96875 2.73388 2.01934 2.8706 2.1123C2.95399 2.16836 3.0661 2.15469 3.1372 2.08496L3.61298 1.62012C3.71005 1.52578 3.69638 1.36855 3.58837 1.28516C3.25341 1.02266 2.83505 0.876367 2.40575 0.875V0.21875C2.40575 0.0984375 2.30731 0 2.187 0H1.7495C1.62919 0 1.53075 0.0984375 1.53075 0.21875V0.875H1.49657C0.625674 0.875 -0.0743262 1.62285 0.00633785 2.51016C0.0637597 3.14043 0.54501 3.65313 1.15204 3.83086L2.55341 4.24102C2.72431 4.2916 2.84325 4.4502 2.84325 4.62793C2.84325 4.85078 2.66278 5.03125 2.43993 5.03125H1.53349C1.36669 5.03125 1.20263 4.98066 1.06591 4.8877C0.98251 4.83164 0.8704 4.84531 0.799307 4.91504L0.323525 5.37988C0.226455 5.47422 0.240127 5.63145 0.348135 5.71484C0.683096 5.97734 1.10146 6.12363 1.53075 6.125V6.78125C1.53075 6.90156 1.62919 7 1.7495 7H2.187C2.30731 7 2.40575 6.90156 2.40575 6.78125V6.12227C3.04286 6.10996 3.64032 5.73125 3.85087 5.12832C4.14481 4.28613 3.65126 3.42207 2.85966 3.19102Z" fill="white"/>
</svg>
