<svg width="12" height="12" viewBox="0 0 12 12" fill="none" xmlns="http://www.w3.org/2000/svg">
<path fill-rule="evenodd" clip-rule="evenodd" d="M10.7827 1.47721C10.6981 1.36935 10.5991 1.27339 10.4885 1.19195C10.2439 1.0118 9.86373 0.938612 9.08966 1.08345C8.31953 1.22755 7.29933 1.55798 5.87464 2.02095L5.09518 2.27424C3.75992 2.70814 2.79765 3.02154 2.12563 3.31967C1.43318 3.62686 1.1927 3.85983 1.11382 4.04934C1.00125 4.31982 0.983226 4.61996 1.06265 4.9018C1.1183 5.09927 1.32921 5.35895 1.98002 5.74563C2.55718 6.08853 3.37348 6.47273 4.482 6.98533L6.3206 5.15979C6.5186 4.96322 6.8396 4.96322 7.03753 5.15979C7.23553 5.35636 7.23553 5.67506 7.03753 5.87163L5.19894 7.69713C5.68231 8.7276 6.04546 9.48873 6.36646 10.0321C6.7316 10.6501 6.9734 10.8594 7.1498 10.9204C7.49186 11.0388 7.868 11.0121 8.18966 10.8467C8.3556 10.7614 8.56493 10.5203 8.838 9.85693C9.1022 9.2152 9.3792 8.30513 9.7622 7.04406L10.0561 6.0764C10.4888 4.65142 10.7976 3.63102 10.9247 2.86322C11.0523 2.09146 10.9697 1.71585 10.7827 1.47721ZM4.20808 7.96913C4.72104 9.06393 5.12652 9.92299 5.49191 10.5414C5.86376 11.1708 6.2638 11.6799 6.81613 11.871C7.4214 12.0805 8.0868 12.0333 8.65593 11.7407C9.17533 11.4736 9.49846 10.9133 9.77653 10.2379C10.0613 9.5462 10.3517 8.58973 10.7242 7.36326L11.0385 6.3286C11.457 4.95038 11.7861 3.86696 11.9251 3.02642C12.0649 2.18205 12.0397 1.44156 11.5827 0.858779C11.4417 0.679006 11.2768 0.519066 11.0925 0.383352C10.4949 -0.0565949 9.7488 -0.0642888 8.90186 0.0941858C8.0588 0.251932 6.9756 0.603932 5.5977 1.05171L4.74843 1.32769C3.45113 1.74925 2.43817 2.07841 1.71203 2.40056C1.00049 2.71622 0.418673 3.08368 0.17678 3.66486C-0.0223934 4.1434 -0.0542681 4.67442 0.0862532 5.17305C0.256913 5.77865 0.790646 6.21213 1.45939 6.60946C2.11631 6.9998 3.0363 7.42786 4.20808 7.96913Z" fill="#4EEF53"/>
</svg>
