<svg width="24" height="24" viewBox="0 0 24 24" fill="none" xmlns="http://www.w3.org/2000/svg">
<g clip-path="url(#clip0_210_339)">
<path d="M19.23 15.2603L16.6896 14.9699C16.3911 14.9349 16.0885 14.9681 15.8046 15.0668C15.5207 15.1655 15.2628 15.3273 15.0504 15.5399L13.2096 17.3795C10.3712 15.9358 8.06414 13.6287 6.6204 10.7903L8.4696 8.93992C8.9004 8.51032 9.1104 7.91032 9.0396 7.29952L8.7504 4.77952C8.69356 4.29161 8.4593 3.84164 8.0922 3.51526C7.72511 3.18887 7.25081 3.00887 6.7596 3.00952H5.0304C3.9 3.00952 2.9604 3.95032 3.03 5.07952C3.5604 13.6199 10.3896 20.4395 18.9204 20.9699C20.0496 21.0395 20.9904 20.0999 20.9904 18.9695V17.2403C20.9929 16.7513 20.8145 16.2786 20.4895 15.9131C20.1646 15.5476 19.716 15.3151 19.23 15.2603Z" fill="url(#paint0_linear_210_339)"/>
</g>
<defs>
<linearGradient id="paint0_linear_210_339" x1="3.02637" y1="11.9915" x2="20.9904" y2="11.9915" gradientUnits="userSpaceOnUse">
<stop stop-color="#4EEF53"/>
<stop offset="1" stop-color="#2E9638"/>
</linearGradient>
<clipPath id="clip0_210_339">
<rect width="24" height="24" fill="white"/>
</clipPath>
</defs>
</svg>
