<svg width="16" height="16" viewBox="0 0 16 16" fill="none" xmlns="http://www.w3.org/2000/svg">
<path d="M11.5692 9.51059C11.3704 9.40992 10.4018 8.93729 10.2208 8.86984C10.0398 8.80537 9.90833 8.77165 9.77642 8.97052C9.64747 9.16443 9.26758 9.60829 9.15153 9.73773C9.03548 9.86717 8.92142 9.87709 8.72552 9.78931C8.52665 9.68864 7.89136 9.48183 7.13704 8.80537C6.54786 8.28116 6.15558 7.63545 6.03903 7.43658C5.92298 7.24019 6.02614 7.1291 6.12433 7.03091C6.21459 6.94065 6.3232 6.80377 6.42388 6.68474C6.51959 6.56572 6.55034 6.48587 6.62027 6.35693C6.68474 6.21757 6.65151 6.10896 6.60242 6.01076C6.55332 5.91257 6.15806 4.93904 5.99291 4.55122C5.8352 4.16637 5.67005 4.21547 5.54855 4.21547C5.43498 4.20505 5.30306 4.20505 5.17164 4.20505C5.04021 4.20505 4.82547 4.25415 4.64445 4.44261C4.46344 4.64148 3.95213 5.11659 3.95213 6.07771C3.95213 7.04132 4.65983 7.97368 4.75802 8.11304C4.8587 8.24198 6.15012 10.2257 8.13139 11.0783C8.60402 11.2771 8.97101 11.3961 9.25767 11.4943C9.73029 11.6441 10.1618 11.6233 10.5025 11.5742C10.8794 11.5122 11.6699 11.0961 11.8355 10.6314C12.0037 10.1637 12.0037 9.77642 11.9546 9.68863C11.9055 9.59837 11.7765 9.54928 11.5777 9.4615L11.5692 9.51059ZM7.97616 14.3822H7.96575C6.79286 14.3822 5.63335 14.0643 4.62065 13.4702L4.3831 13.3283L1.90341 13.974L2.56995 11.5613L2.40976 11.3133C1.75611 10.2724 1.40747 9.07119 1.40747 7.8368C1.40747 4.2363 4.35483 1.29936 7.98112 1.29936C9.73773 1.29936 11.3857 1.98375 12.6256 3.22359C13.8654 4.45302 14.5498 6.10102 14.5498 7.84722C14.5449 11.4452 11.6 14.3822 7.97864 14.3822H7.97616ZM13.5684 2.28082C12.0597 0.823752 10.076 0 7.96575 0C3.6134 0 0.0694313 3.5286 0.0669516 7.86507C0.0669516 9.24973 0.42849 10.6007 1.12082 11.7964L0 15.87L4.18968 14.7775C5.34422 15.3999 6.64358 15.7331 7.96624 15.7356H7.96872C12.3236 15.7356 15.8675 12.207 15.87 7.86755C15.87 5.76775 15.0512 3.79144 13.5584 2.30611L13.5684 2.28082Z" fill="white"/>
</svg>
