<svg width="83" height="57" viewBox="0 0 83 57" fill="none" xmlns="http://www.w3.org/2000/svg">
<path d="M34.8594 37.5273H40.543C40.4648 39.6628 40.0352 41.4661 39.2539 42.9375C38.4727 44.3958 37.3594 45.5026 35.9141 46.2578C34.4818 47.013 32.75 47.3906 30.7188 47.3906C29.1432 47.3906 27.7435 47.1302 26.5195 46.6094C25.2956 46.0755 24.2539 45.2943 23.3945 44.2656C22.5352 43.237 21.8841 41.9674 21.4414 40.457C21.0117 38.9336 20.7969 37.1823 20.7969 35.2031V30.3789C20.7969 28.3997 21.0247 26.6484 21.4805 25.125C21.9492 23.6016 22.6133 22.3255 23.4727 21.2969C24.3451 20.2552 25.3932 19.474 26.6172 18.9531C27.8542 18.4193 29.2474 18.1523 30.7969 18.1523C32.8672 18.1523 34.599 18.543 35.9922 19.3242C37.3854 20.1055 38.4596 21.2448 39.2148 22.7422C39.9831 24.2266 40.4453 26.043 40.6016 28.1914H34.8984C34.8594 26.8372 34.7031 25.776 34.4297 25.0078C34.1693 24.2266 33.7526 23.6797 33.1797 23.3672C32.6068 23.0417 31.8125 22.8789 30.7969 22.8789C30.0417 22.8789 29.3906 23.0156 28.8438 23.2891C28.2969 23.5495 27.8477 23.9727 27.4961 24.5586C27.1445 25.1445 26.8841 25.9128 26.7148 26.8633C26.5586 27.8138 26.4805 28.9727 26.4805 30.3398V35.2031C26.4805 36.5443 26.5521 37.6901 26.6953 38.6406C26.8385 39.5781 27.0664 40.3464 27.3789 40.9453C27.6914 41.5443 28.1146 41.9805 28.6484 42.2539C29.1953 42.5273 29.8854 42.6641 30.7188 42.6641C31.6823 42.6641 32.457 42.5208 33.043 42.2344C33.6419 41.9479 34.0846 41.4336 34.3711 40.6914C34.6576 39.9492 34.8203 38.8945 34.8594 37.5273ZM44.1367 18.5625H53.2578C55.1589 18.5625 56.7799 18.888 58.1211 19.5391C59.4622 20.1901 60.4909 21.1536 61.207 22.4297C61.9232 23.7057 62.2812 25.2812 62.2812 27.1562C62.2812 28.6927 62.0729 30.0078 61.6562 31.1016C61.2396 32.1823 60.6471 33.0872 59.8789 33.8164C59.1107 34.5326 58.1927 35.1055 57.125 35.5352L55.3867 36.5703H47.9844L47.9648 31.8242H53.1016C53.8828 31.8242 54.5273 31.6549 55.0352 31.3164C55.556 30.9648 55.9401 30.4766 56.1875 29.8516C56.4479 29.2135 56.5781 28.4714 56.5781 27.625C56.5781 26.7266 56.4609 25.9583 56.2266 25.3203C56.0052 24.6693 55.6471 24.1745 55.1523 23.8359C54.6706 23.4844 54.0391 23.3086 53.2578 23.3086H49.8594V47H44.1367V18.5625ZM57.0469 47L51.832 34.3242L57.8281 34.3047L63.1602 46.7266V47H57.0469Z" fill="white"/>
<g filter="url(#filter0_d_224_5)">
<rect x="67" y="20" width="7" height="27" fill="#4EEF53"/>
</g>
<g filter="url(#filter1_d_224_5)">
<path d="M4 24L41.5 4L79 24" stroke="#4EEF53" stroke-width="7"/>
</g>
<g filter="url(#filter2_d_224_5)">
<rect x="9" y="20" width="7" height="27" fill="#4EEF53"/>
</g>
<defs>
<filter id="filter0_d_224_5" x="63" y="18" width="15" height="35" filterUnits="userSpaceOnUse" color-interpolation-filters="sRGB">
<feFlood flood-opacity="0" result="BackgroundImageFix"/>
<feColorMatrix in="SourceAlpha" type="matrix" values="0 0 0 0 0 0 0 0 0 0 0 0 0 0 0 0 0 0 127 0" result="hardAlpha"/>
<feOffset dy="2"/>
<feGaussianBlur stdDeviation="2"/>
<feComposite in2="hardAlpha" operator="out"/>
<feColorMatrix type="matrix" values="0 0 0 0 0 0 0 0 0 0 0 0 0 0 0 0 0 0 0.25 0"/>
<feBlend mode="normal" in2="BackgroundImageFix" result="effect1_dropShadow_224_5"/>
<feBlend mode="normal" in="SourceGraphic" in2="effect1_dropShadow_224_5" result="shape"/>
</filter>
<filter id="filter1_d_224_5" x="0.353027" y="0.0334473" width="82.2939" height="31.0547" filterUnits="userSpaceOnUse" color-interpolation-filters="sRGB">
<feFlood flood-opacity="0" result="BackgroundImageFix"/>
<feColorMatrix in="SourceAlpha" type="matrix" values="0 0 0 0 0 0 0 0 0 0 0 0 0 0 0 0 0 0 127 0" result="hardAlpha"/>
<feOffset dy="2"/>
<feGaussianBlur stdDeviation="1"/>
<feComposite in2="hardAlpha" operator="out"/>
<feColorMatrix type="matrix" values="0 0 0 0 0 0 0 0 0 0 0 0 0 0 0 0 0 0 0.25 0"/>
<feBlend mode="normal" in2="BackgroundImageFix" result="effect1_dropShadow_224_5"/>
<feBlend mode="normal" in="SourceGraphic" in2="effect1_dropShadow_224_5" result="shape"/>
</filter>
<filter id="filter2_d_224_5" x="5" y="18" width="15" height="35" filterUnits="userSpaceOnUse" color-interpolation-filters="sRGB">
<feFlood flood-opacity="0" result="BackgroundImageFix"/>
<feColorMatrix in="SourceAlpha" type="matrix" values="0 0 0 0 0 0 0 0 0 0 0 0 0 0 0 0 0 0 127 0" result="hardAlpha"/>
<feOffset dy="2"/>
<feGaussianBlur stdDeviation="2"/>
<feComposite in2="hardAlpha" operator="out"/>
<feColorMatrix type="matrix" values="0 0 0 0 0 0 0 0 0 0 0 0 0 0 0 0 0 0 0.25 0"/>
<feBlend mode="normal" in2="BackgroundImageFix" result="effect1_dropShadow_224_5"/>
<feBlend mode="normal" in="SourceGraphic" in2="effect1_dropShadow_224_5" result="shape"/>
</filter>
</defs>
</svg>
